<svg width="440" height="445" viewBox="0 0 440 445" fill="none" xmlns="http://www.w3.org/2000/svg">
<path d="M374.715 231.64C460.835 280.44 461.295 359.55 375.715 408.34C290.135 457.13 151.005 457.09 64.8849 408.34C-21.2351 359.59 -21.6851 280.44 63.8849 231.65C149.455 182.86 288.605 182.85 374.715 231.64Z" fill="#0A0A0A"/>
<path d="M78.1549 289.09C75.3249 290.73 75.3049 293.38 78.1549 295.01L88.2849 300.9C89.8694 301.706 91.6221 302.126 93.3999 302.126C95.1777 302.126 96.9304 301.706 98.5149 300.9L220.645 229.95C223.475 228.32 223.505 225.66 220.645 224.02L210.505 218.13C208.92 217.324 207.168 216.904 205.39 216.904C203.612 216.904 201.859 217.324 200.275 218.13L78.1549 289.09Z" fill="#958080"/>
<path d="M95.2948 362.09L185.565 414.54C186.824 415.271 188.254 415.657 189.71 415.657C191.166 415.657 192.596 415.271 193.855 414.54L357.805 319.92C358.118 319.738 358.378 319.477 358.559 319.163C358.74 318.848 358.835 318.492 358.835 318.13C358.835 317.767 358.74 317.411 358.559 317.097C358.378 316.783 358.118 316.522 357.805 316.34L268.805 264.62C267.551 263.9 266.131 263.521 264.685 263.521C263.239 263.521 261.818 263.9 260.565 264.62L95.3149 358.52C95.0027 358.701 94.7433 358.96 94.5623 359.272C94.3813 359.584 94.285 359.938 94.283 360.299C94.281 360.66 94.3733 361.015 94.5508 361.329C94.7283 361.643 94.9848 361.905 95.2948 362.09Z" fill="#958080"/>
<path d="M56.6545 49.52L56.7245 71.53L59.3845 73.08L59.3145 47.99L56.6545 49.52Z" fill="#F0F0F0"/>
<path d="M27.9246 88.1598L27.9346 91.2398L59.3846 73.0798L56.7246 71.5298L27.9246 88.1598Z" fill="#F5F5F5"/>
<path d="M62.5245 42.4299L24.6245 64.3099L24.7145 96.8099L62.6245 74.9299L62.5245 42.4299ZM27.9245 91.2399V88.1599L27.8545 66.1599L56.6545 49.5299L59.3145 47.9999L59.3845 73.0899L27.9245 91.2399Z" fill="#BCBCBC"/>
<path d="M62.5246 42.4299L59.8646 40.8799L21.9546 62.7599L24.6246 64.3099L62.5246 42.4299Z" fill="#F5F5F5"/>
<path d="M21.9546 62.7598L22.0446 95.2598L24.7146 96.8098L24.6246 64.3098L21.9546 62.7598Z" fill="#F0F0F0"/>
<path d="M56.6545 95.3899L56.7245 117.4L59.3845 118.95L59.3145 93.8499L56.6545 95.3899Z" fill="#F0F0F0"/>
<path d="M27.9246 134.03L27.9346 137.11L59.3846 118.95L56.7246 117.4L27.9246 134.03Z" fill="#F5F5F5"/>
<path d="M62.5245 88.2898L24.6245 110.18L24.7145 142.68L62.6245 120.79L62.5245 88.2898ZM27.9245 137.09V134L27.8545 112L56.6545 95.3798L59.3145 93.8398L59.3845 118.94L27.9245 137.09Z" fill="#BCBCBC"/>
<path d="M62.5246 88.29L59.8646 86.74L21.9546 108.63L24.6246 110.18L62.5246 88.29Z" fill="#F5F5F5"/>
<path d="M21.9546 108.63L22.0446 141.12L24.7146 142.68L24.6246 110.18L21.9546 108.63Z" fill="#F0F0F0"/>
<path d="M47.5046 57.8799L55.3646 64.0599L55.3746 70.0999L29.2546 85.1799L29.2346 79.1399L34.2146 69.2599L38.6846 72.7299L37.1046 77.6399L39.4046 73.2799L47.5046 57.8799Z" fill="#BCBCBC"/>
<path d="M38.9246 60.92C40.1546 60.21 41.1546 60.78 41.1646 62.2C41.1304 62.9782 40.9111 63.737 40.5251 64.4135C40.139 65.09 39.5972 65.6647 38.9446 66.09C37.7146 66.8 36.7146 66.23 36.7046 64.82C36.7372 64.0401 36.9557 63.2793 37.3419 62.6009C37.728 61.9225 38.2707 61.3462 38.9246 60.92Z" fill="#BCBCBC"/>
<path d="M47.5046 103.75L55.3646 109.93L55.3746 115.97L29.2546 131.05L29.2346 125.01L34.2146 115.12L38.6846 118.59L37.1046 123.5L39.4046 119.14L47.5046 103.75Z" fill="#BCBCBC"/>
<path d="M38.9246 106.79C40.1546 106.08 41.1546 106.65 41.1646 108.06C41.1242 108.831 40.902 109.582 40.5162 110.251C40.1304 110.92 39.5919 111.489 38.9446 111.91C37.7146 112.62 36.7146 112.05 36.7046 110.63C36.7466 109.86 36.9695 109.112 37.3552 108.444C37.741 107.777 38.2786 107.21 38.9246 106.79Z" fill="#BCBCBC"/>
<path d="M214.105 33.5998C214.105 25.1698 211.105 19.2498 206.295 16.4598L195.505 10.0898L195.355 10.0098C194.923 9.75998 194.476 9.53949 194.015 9.34982C193.93 9.31537 193.843 9.28533 193.755 9.25982L193.295 9.09982C193.065 9.01982 192.845 8.91982 192.605 8.84982C192.365 8.77982 192.085 8.72983 191.835 8.66983L191.355 8.56982C191.273 8.54399 191.189 8.52394 191.105 8.50982C190.569 8.41578 190.028 8.35235 189.485 8.31982H188.995C188.575 8.31982 188.155 8.31982 187.715 8.31982L187.275 8.36982L186.475 8.44983C186.225 8.44983 185.975 8.44982 185.725 8.51982L185.055 8.66983C184.695 8.72983 184.335 8.80983 183.965 8.89983C183.765 8.89983 183.575 8.96982 183.375 9.02982C182.925 9.14982 182.475 9.28982 182.015 9.43982H181.875C181.325 9.61982 180.785 9.82983 180.225 10.0598L179.565 10.3598L178.935 10.6498C178.125 11.0298 177.315 11.4398 176.485 11.9198L97.6047 57.4698C96.7447 57.9698 95.8947 58.5098 95.0547 59.0898L94.2547 59.6698C93.6847 60.0798 93.1247 60.4998 92.5647 60.9398L91.6547 61.6998C91.1447 62.1298 90.6547 62.5698 90.1447 63.0198L89.2447 63.8598L88.6747 64.3898C88.4847 64.5798 88.2947 64.7998 88.1047 64.9998C87.5047 65.6098 86.9047 66.2398 86.3247 66.8898C86.1447 67.0998 85.9447 67.2898 85.7547 67.4998L85.3047 68.0498C84.9547 68.4598 84.6147 68.8898 84.3047 69.3098C83.9947 69.7298 83.8447 69.8598 83.6247 70.1398C83.4047 70.4198 83.2747 70.6198 83.1047 70.8598C82.9347 71.0998 82.6047 71.5198 82.3647 71.8598L81.8447 72.5498C81.5647 72.9498 81.3047 73.3598 81.0347 73.7698L80.5147 74.5398L80.3047 74.8598C79.8247 75.6098 79.3647 76.3598 78.9147 77.1298L78.8347 77.2798L78.5747 77.7398C78.2647 78.2798 77.9547 78.8298 77.6647 79.3798C77.5247 79.6298 77.4047 79.8898 77.2747 80.1498L76.8647 80.9498C76.7547 81.1898 76.6247 81.4198 76.5147 81.6498C76.2047 82.2798 75.9247 82.9098 75.6447 83.5498L75.4947 83.8798L75.4447 83.9698C75.1047 84.7698 74.7747 85.5698 74.4447 86.3698C74.3947 86.5198 74.3447 86.6698 74.2847 86.8198C74.2247 86.9698 74.0847 87.3998 73.9747 87.6898C73.8647 87.9798 73.6747 88.4898 73.5447 88.8998C73.4147 89.3098 73.3547 89.5198 73.2547 89.8398C73.1547 90.1598 73.0247 90.5698 72.9247 90.9298C72.8247 91.2898 72.7747 91.3898 72.7147 91.6198C72.5947 92.0298 72.5147 92.4398 72.4147 92.8498C72.3147 93.2598 72.1747 93.7598 72.0747 94.2098C72.0747 94.3698 71.9947 94.5298 71.9547 94.6898C71.8847 95.0198 71.8547 95.3398 71.7947 95.6898C71.6547 96.3998 71.5247 97.1098 71.4247 97.8198C71.4247 98.0198 71.3447 98.2198 71.3247 98.4098C71.2647 98.8598 71.2347 99.2998 71.1947 99.7498C71.1547 100.2 71.1247 100.38 71.1047 100.69C71.0247 101.69 70.9747 102.69 70.9847 103.64L71.3247 255.85C71.3247 264.28 74.3247 270.21 79.1347 273L89.9347 279.39C89.6313 279.201 89.3375 278.998 89.0547 278.78C93.9747 282.21 101.055 282.09 108.945 277.53L187.805 231.97C202.565 223.45 214.505 202.78 214.455 185.8L214.105 33.5998Z" fill="#EA454C"/>
<path opacity="0.6" d="M214.105 33.5998C214.105 25.1698 211.105 19.2498 206.295 16.4598L195.505 10.0898L195.355 10.0098C194.923 9.75998 194.476 9.53949 194.015 9.34982C193.93 9.31537 193.843 9.28533 193.755 9.25982L193.295 9.09982C193.065 9.01982 192.845 8.91982 192.605 8.84982C192.365 8.77982 192.085 8.72983 191.835 8.66983L191.355 8.56982C191.273 8.54399 191.189 8.52394 191.105 8.50982C190.569 8.41578 190.028 8.35235 189.485 8.31982H188.995C188.575 8.31982 188.155 8.31982 187.715 8.31982L187.275 8.36982L186.475 8.44983C186.225 8.44983 185.975 8.44982 185.725 8.51982L185.055 8.66983C184.695 8.72983 184.335 8.80983 183.965 8.89983C183.765 8.89983 183.575 8.96982 183.375 9.02982C182.925 9.14982 182.475 9.28982 182.015 9.43982H181.875C181.325 9.61982 180.785 9.82983 180.225 10.0598L179.565 10.3598L178.935 10.6498C178.125 11.0298 177.315 11.4398 176.485 11.9198L97.6047 57.4698C96.7447 57.9698 95.8947 58.5098 95.0547 59.0898L94.2547 59.6698C93.6847 60.0798 93.1247 60.4998 92.5647 60.9398L91.6547 61.6998C91.1447 62.1298 90.6547 62.5698 90.1447 63.0198L89.2447 63.8598L88.6747 64.3898C88.4847 64.5798 88.2947 64.7998 88.1047 64.9998C87.5047 65.6098 86.9047 66.2398 86.3247 66.8898C86.1447 67.0998 85.9447 67.2898 85.7547 67.4998L85.3047 68.0498C84.9547 68.4598 84.6147 68.8898 84.3047 69.3098C83.9947 69.7298 83.8447 69.8598 83.6247 70.1398C83.4047 70.4198 83.2747 70.6198 83.1047 70.8598C82.9347 71.0998 82.6047 71.5198 82.3647 71.8598L81.8447 72.5498C81.5647 72.9498 81.3047 73.3598 81.0347 73.7698L80.5147 74.5398L80.3047 74.8598C79.8247 75.6098 79.3647 76.3598 78.9147 77.1298L78.8347 77.2798L78.5747 77.7398C78.2647 78.2798 77.9547 78.8298 77.6647 79.3798C77.5247 79.6298 77.4047 79.8898 77.2747 80.1498L76.8647 80.9498C76.7547 81.1898 76.6247 81.4198 76.5147 81.6498C76.2047 82.2798 75.9247 82.9098 75.6447 83.5498L75.4947 83.8798L75.4447 83.9698C75.1047 84.7698 74.7747 85.5698 74.4447 86.3698C74.3947 86.5198 74.3447 86.6698 74.2847 86.8198C74.2247 86.9698 74.0847 87.3998 73.9747 87.6898C73.8647 87.9798 73.6747 88.4898 73.5447 88.8998C73.4147 89.3098 73.3547 89.5198 73.2547 89.8398C73.1547 90.1598 73.0247 90.5698 72.9247 90.9298C72.8247 91.2898 72.7747 91.3898 72.7147 91.6198C72.5947 92.0298 72.5147 92.4398 72.4147 92.8498C72.3147 93.2598 72.1747 93.7598 72.0747 94.2098C72.0747 94.3698 71.9947 94.5298 71.9547 94.6898C71.8847 95.0198 71.8547 95.3398 71.7947 95.6898C71.6547 96.3998 71.5247 97.1098 71.4247 97.8198C71.4247 98.0198 71.3447 98.2198 71.3247 98.4098C71.2647 98.8598 71.2347 99.2998 71.1947 99.7498C71.1547 100.2 71.1247 100.38 71.1047 100.69C71.0247 101.69 70.9747 102.69 70.9847 103.64L71.3247 255.85C71.3247 264.28 74.3247 270.21 79.1347 273L89.9347 279.39C89.6313 279.201 89.3375 278.998 89.0547 278.78C93.9747 282.21 101.055 282.09 108.945 277.53L187.805 231.97C202.565 223.45 214.505 202.78 214.455 185.8L214.105 33.5998Z" fill="black"/>
<path opacity="0.1" d="M82.1046 262.21L81.8046 110.01L71.0046 103.62L71.3446 255.83C71.3446 264.26 74.3446 270.19 79.1546 272.98L89.9546 279.37C85.1146 276.58 82.1346 270.65 82.1046 262.21Z" fill="black"/>
<path opacity="0.3" d="M190.365 16.7598C191.118 16.4136 191.889 16.1066 192.675 15.8398H192.815C193.475 15.6198 194.125 15.4498 194.815 15.2998L195.905 15.0598C196.385 14.9698 196.855 14.8998 197.325 14.8498L198.125 14.7598C198.698 14.7301 199.272 14.7301 199.845 14.7598H200.235C200.906 14.7999 201.574 14.8834 202.235 15.0098L202.715 15.1198C203.209 15.236 203.696 15.3795 204.175 15.5498L204.635 15.6998C205.238 15.9351 205.823 16.2159 206.385 16.5398L195.505 10.0898L195.355 10.0098C194.923 9.75998 194.476 9.53949 194.015 9.34982C193.93 9.31537 193.843 9.28533 193.755 9.25982L193.295 9.09982C193.065 9.01982 192.845 8.91982 192.605 8.84982C192.365 8.77982 192.085 8.72983 191.835 8.66983L191.355 8.56982C191.273 8.54399 191.189 8.52394 191.105 8.50982C190.569 8.41578 190.028 8.35235 189.485 8.31982H188.995C188.575 8.31982 188.155 8.31982 187.715 8.31982L187.275 8.36982L186.475 8.44983C186.225 8.44983 185.975 8.44982 185.725 8.51982L185.055 8.66983C184.695 8.72983 184.335 8.80983 183.965 8.89983C183.765 8.89983 183.575 8.96982 183.375 9.02982C182.925 9.14982 182.475 9.28982 182.015 9.43982H181.875C181.325 9.61982 180.785 9.82983 180.225 10.0598L179.565 10.3598L178.935 10.6498C178.125 11.0298 177.315 11.4398 176.485 11.9198L97.6047 57.4698C96.7447 57.9698 95.8947 58.5098 95.0547 59.0898L94.2547 59.6798C93.6847 60.0798 93.1247 60.4998 92.5647 60.9398L91.6547 61.6998C91.1447 62.1298 90.6547 62.5698 90.1447 63.0198L89.2447 63.8598L88.6747 64.3898C88.4847 64.5798 88.2947 64.7998 88.1047 64.9998C87.5047 65.6098 86.9047 66.2398 86.3247 66.8898C86.1447 67.0998 85.9447 67.2898 85.7547 67.4998L85.3047 68.0498C84.9547 68.4598 84.6147 68.8898 84.3047 69.3098C83.9947 69.7298 83.8447 69.8598 83.6247 70.1398C83.4047 70.4198 83.2747 70.6198 83.1047 70.8598C82.9347 71.0998 82.6047 71.5198 82.3647 71.8598L81.8447 72.5498C81.5647 72.9498 81.3047 73.3598 81.0347 73.7698L80.5147 74.5398L80.3047 74.8598C79.8247 75.6098 79.3647 76.3598 78.9147 77.1298L78.8347 77.2798L78.5747 77.7398C78.2647 78.2898 77.9547 78.8298 77.6647 79.3798C77.5247 79.6298 77.4047 79.8898 77.2747 80.1498L76.8647 80.9498C76.7547 81.1898 76.6247 81.4198 76.5147 81.6498C76.2047 82.2798 75.9247 82.9098 75.6447 83.5498L75.4947 83.8798L75.4447 83.9698C75.1047 84.7698 74.7747 85.5698 74.4447 86.3698C74.3947 86.5198 74.3447 86.6698 74.2847 86.8198C74.2247 86.9698 74.0847 87.3998 73.9747 87.6898C73.8647 87.9798 73.6747 88.4898 73.5447 88.8998C73.4147 89.3098 73.3547 89.5198 73.2547 89.8398C73.1547 90.1598 73.0247 90.5698 72.9247 90.9298C72.8247 91.2898 72.7747 91.3898 72.7147 91.6198C72.5947 92.0298 72.5147 92.4398 72.4147 92.8498C72.3147 93.2598 72.1747 93.7598 72.0747 94.2098C72.0747 94.3698 71.9947 94.5298 71.9547 94.6898C71.8847 95.0198 71.8547 95.3398 71.7947 95.6898C71.6547 96.3998 71.5247 97.1098 71.4247 97.8198C71.4247 98.0198 71.3447 98.2198 71.3247 98.4098C71.2647 98.8598 71.2347 99.2998 71.1947 99.7498C71.1547 100.2 71.1247 100.38 71.1047 100.69C71.0247 101.69 70.9747 102.69 70.9847 103.64L81.7847 110.03C81.7847 109.03 81.7847 108.03 81.8947 107.08C81.8947 106.76 81.9647 106.45 81.9947 106.13C82.0547 105.49 82.1347 104.85 82.2247 104.21C82.3147 103.57 82.4547 102.79 82.5947 102.08C82.6847 101.59 82.7647 101.08 82.8747 100.62C82.9847 100.16 83.0947 99.7098 83.2147 99.2498C83.3747 98.6198 83.5347 97.9798 83.7147 97.3398C83.8247 96.9798 83.9447 96.6098 84.0547 96.2398C84.2847 95.5298 84.5247 94.8098 84.7747 94.0998C84.8747 93.8098 84.9747 93.5098 85.0847 93.2198C85.4547 92.2198 85.8447 91.2198 86.2747 90.2898L86.4247 89.9498C86.8147 89.0798 87.2147 88.2198 87.6447 87.3598C87.7747 87.0898 87.9147 86.8198 88.0547 86.5598C88.4647 85.7498 88.9047 84.9498 89.3547 84.1498L89.6147 83.6898C90.1547 82.7598 90.7147 81.8498 91.2947 80.9498L91.8147 80.1698C92.2447 79.5298 92.6847 78.8998 93.1347 78.2698L93.8847 77.2698C94.2747 76.7498 94.6847 76.2698 95.0847 75.7298L96.0847 74.4598L97.0847 73.3098C97.6647 72.6598 98.2647 72.0298 98.8647 71.4198C99.2447 71.0298 99.6147 70.6498 100.005 70.2798C100.395 69.9098 100.605 69.7098 100.905 69.4398C101.405 68.9798 101.905 68.5398 102.415 68.1198L103.325 67.3598C103.885 66.9198 104.445 66.4998 105.015 66.0898C105.285 65.8998 105.545 65.6898 105.815 65.5098C106.655 64.9298 107.505 64.3898 108.365 63.8898L187.245 18.3498C188.075 17.8698 188.885 17.4598 189.695 17.0798L190.365 16.7598Z" fill="black"/>
<path d="M95.5546 262.17C95.5546 265.48 96.2846 267.17 96.6546 267.69C96.7677 267.699 96.8814 267.699 96.9946 267.69C97.6046 267.69 99.3246 267.51 102.205 265.85L181.085 220.31C191.735 214.16 201.085 198.05 201.005 185.82L200.925 146.72L95.4246 208.29L95.5546 262.17Z" fill="#EA454C"/>
<path d="M200.665 33.6399C200.665 30.2899 199.905 28.6399 199.545 28.1199H199.095H198.785L198.345 28.1899L197.925 28.2799C197.665 28.3399 197.295 28.4399 197.025 28.5299H196.895C196.625 28.6299 196.265 28.7699 195.895 28.9599L195.525 29.1299C194.925 29.4099 194.455 29.6499 194.045 29.8899L115.165 75.4299C114.675 75.7199 114.165 76.0599 113.555 76.4299L112.955 76.8599C112.565 77.1499 112.175 77.4399 111.795 77.7399L111.255 78.1799L111.145 78.2799C110.765 78.5899 110.405 78.9099 110.045 79.2299L109.375 79.8599L108.655 80.5899L108.525 80.7199C108.065 81.1799 107.615 81.6599 107.185 82.1499L107.035 82.3099L106.395 83.0299L105.585 84.0299C105.265 84.4299 104.945 84.8299 104.645 85.2399L104.055 86.0199C103.705 86.5199 103.355 87.0199 103.055 87.5299L102.635 88.1499C102.155 88.8999 101.705 89.6299 101.315 90.2999L101.095 90.6899C100.735 91.3199 100.395 91.9599 100.095 92.5999L99.7747 93.2299C99.4347 93.9099 99.1147 94.5899 98.7747 95.2299C98.7147 95.3599 98.6646 95.4899 98.5946 95.6299C98.3146 96.2899 98.0247 97.0099 97.7147 97.8199L97.4746 98.4999C97.2746 99.0499 97.0947 99.5999 96.9247 100.15C96.8347 100.43 96.7447 100.71 96.6646 100.98C96.5246 101.46 96.4047 101.93 96.2847 102.43L96.2147 102.7L96.0347 103.42L95.9146 104.04L95.8346 104.48C95.7346 104.99 95.6446 105.48 95.5746 106C95.5046 106.52 95.4546 106.88 95.4146 107.32L95.3447 107.96C95.2847 108.71 95.2646 109.33 95.2646 109.88L95.4746 203.73L200.975 142.16L200.665 33.6399Z" fill="#455A64"/>
<path d="M95.4146 203.83L95.4246 208.31L200.925 146.74L200.905 142.26L95.4146 203.83Z" fill="black"/>
<path d="M183.855 86.5498L173.805 92.3598C177.425 84.3598 176.925 76.3598 172.305 73.7598C169.725 72.2898 166.305 72.7598 162.985 74.7598C159.097 77.1766 155.895 80.5509 153.685 84.5598L150.935 89.3198L150.465 83.2398C150.465 82.7298 150.045 82.5298 149.535 82.7898C149.293 82.9475 149.087 83.1532 148.929 83.3941C148.771 83.6349 148.664 83.9058 148.615 84.1898L147.755 89.7998L146.175 88.8998C143.595 87.4298 140.175 87.8998 136.845 89.8498C132.958 92.2647 129.759 95.6397 127.555 99.6498C122.955 107.65 122.505 116.11 126.165 119.92L116.095 125.73C115.821 125.903 115.593 126.14 115.431 126.42C115.269 126.701 115.178 127.016 115.165 127.34C115.165 127.93 115.585 128.17 116.095 127.88L127.805 121.09L131.415 123.15L150.105 133.79L152.235 130.1L152.325 131.25C152.325 131.77 152.765 131.97 153.255 131.7C153.507 131.533 153.721 131.313 153.882 131.056C154.042 130.799 154.146 130.51 154.185 130.21L154.555 126.08L168.665 101.64L172.255 95.4298L183.915 88.6998C184.177 88.5182 184.394 88.2784 184.548 87.9991C184.703 87.7198 184.79 87.4086 184.805 87.0898C184.805 86.4898 184.375 86.2498 183.855 86.5498Z" fill="#EA454C"/>
<path d="M149.525 82.7398C150.035 82.4798 150.415 82.6798 150.455 83.1898L150.925 89.2698L153.315 119.63L156.205 87.9998C156.235 87.7067 156.329 87.4238 156.481 87.1714C156.633 86.919 156.839 86.7033 157.085 86.5398C157.565 86.2598 157.955 86.3898 158.035 86.8598L161.455 105.34L162.095 100.03C162.136 99.738 162.24 99.4584 162.398 99.2099C162.557 98.9615 162.767 98.7501 163.015 98.5898L173.805 92.3598L183.865 86.5498C184.385 86.2498 184.805 86.4898 184.805 87.0898C184.786 87.4121 184.692 87.7256 184.531 88.0051C184.369 88.2847 184.144 88.5226 183.875 88.6998L172.215 95.4298L163.805 100.27L162.475 111.27C162.435 111.558 162.334 111.835 162.179 112.082C162.024 112.328 161.818 112.539 161.575 112.7C161.105 112.97 160.725 112.83 160.635 112.37L157.365 94.6198L154.505 126.09L154.135 130.22C154.096 130.52 153.992 130.809 153.832 131.066C153.672 131.323 153.458 131.543 153.205 131.71C152.715 131.98 152.315 131.78 152.275 131.26L152.185 130.11L149.185 91.7898L144.185 124.28C144.134 124.561 144.028 124.829 143.871 125.068C143.715 125.307 143.512 125.511 143.275 125.67C142.755 125.94 142.385 125.74 142.345 125.23L140.345 102.23L138.075 114.36C138.019 114.632 137.909 114.891 137.753 115.121C137.597 115.351 137.397 115.547 137.165 115.7L127.805 121.09L116.135 127.83C115.625 128.12 115.205 127.83 115.205 127.29C115.218 126.966 115.309 126.651 115.471 126.37C115.633 126.09 115.861 125.853 116.135 125.68L126.205 119.87L136.465 113.94L139.865 95.8098C139.918 95.5352 140.026 95.2741 140.182 95.0421C140.338 94.8101 140.54 94.6121 140.775 94.4598C141.295 94.1998 141.655 94.4098 141.705 94.8998L143.645 116.9L147.795 89.7298L148.655 84.1198C148.7 83.8434 148.801 83.5789 148.95 83.3419C149.1 83.1049 149.295 82.9002 149.525 82.7398Z" fill="black"/>
<path d="M136.965 153.28L136.995 166.33L133.165 168.54L133.135 158.81L131.185 159.93V156.62L136.965 153.28Z" fill="black"/>
<path d="M142.595 149.73C145.285 148.18 147.185 148.73 147.195 151.17C147.195 152.45 146.915 153.77 145.255 156.45L143.645 159.09L147.465 156.89V160.3L138.365 165.56V162.86L142.465 156.12C142.976 155.451 143.285 154.649 143.355 153.81C143.355 153.19 142.975 153.01 142.245 153.43C141.453 153.938 140.863 154.705 140.575 155.6H137.685C138.578 153.126 140.317 151.047 142.595 149.73Z" fill="black"/>
<path d="M153.365 143.51C156.365 141.79 158.515 143.04 158.525 147.36C158.589 149.295 158.152 151.214 157.255 152.929C156.357 154.645 155.031 156.099 153.405 157.15C150.405 158.89 148.245 157.63 148.235 153.3C148.173 151.364 148.613 149.445 149.512 147.73C150.411 146.015 151.738 144.561 153.365 143.51ZM153.365 153.63C154.105 153.2 154.655 152.1 154.645 149.63C154.635 147.16 154.085 146.63 153.345 147.09C152.605 147.55 152.045 148.62 152.055 151.09C152.065 153.56 152.625 154.09 153.365 153.64" fill="black"/>
<path d="M163.475 146.86C164.405 146.32 165.205 146.67 165.205 147.98C165.197 148.603 165.037 149.214 164.737 149.76C164.437 150.306 164.007 150.77 163.485 151.11C163.045 151.36 162.725 151.42 162.485 151.27V151.6L161.085 152.41V146.84L162.555 145.99V147.74C162.773 147.366 163.092 147.061 163.475 146.86ZM163.125 150C163.312 149.874 163.464 149.702 163.566 149.501C163.667 149.299 163.715 149.075 163.705 148.85C163.705 148.32 163.445 148.2 163.125 148.39C162.938 148.511 162.788 148.68 162.688 148.878C162.587 149.076 162.542 149.298 162.555 149.52C162.555 150.05 162.805 150.18 163.125 150Z" fill="black"/>
<path d="M168.045 144.21C168.975 143.68 169.765 144.04 169.765 145.36C169.761 145.98 169.603 146.589 169.304 147.132C169.006 147.675 168.576 148.135 168.055 148.47C167.665 148.69 167.365 148.76 167.145 148.64V150.38L165.675 151.23V145.68L167.075 144.87V145.2C167.299 144.786 167.635 144.443 168.045 144.21ZM167.705 147.36C167.892 147.237 168.044 147.067 168.146 146.867C168.248 146.667 168.295 146.444 168.285 146.22C168.285 145.69 168.025 145.56 167.695 145.75C167.506 145.875 167.354 146.046 167.252 146.248C167.15 146.45 167.103 146.674 167.115 146.9C167.115 147.43 167.375 147.55 167.705 147.36Z" fill="black"/>
<path d="M174.955 140.22C175.765 139.76 176.375 139.97 176.375 141.22V143.56L174.905 144.41V142.41C174.905 141.89 174.745 141.79 174.515 141.92C174.355 142.03 174.229 142.181 174.148 142.357C174.067 142.533 174.035 142.727 174.055 142.92V144.92L172.585 145.77V143.77C172.585 143.25 172.425 143.15 172.175 143.29C172.015 143.4 171.889 143.551 171.808 143.727C171.727 143.903 171.695 144.097 171.715 144.29V146.29L170.235 147.14V143.04L171.635 142.24V142.61C171.877 142.197 172.221 141.852 172.635 141.61C173.105 141.34 173.505 141.31 173.755 141.61C174.013 141.041 174.429 140.558 174.955 140.22Z" fill="black"/>
<path d="M113.895 209.09C117.435 207.04 120.315 208.69 120.335 212.75C120.22 214.971 119.58 217.133 118.467 219.059C117.355 220.985 115.801 222.62 113.935 223.83C110.385 225.88 107.505 224.24 107.495 220.16C107.612 217.94 108.253 215.78 109.365 213.856C110.478 211.932 112.03 210.299 113.895 209.09Z" fill="black"/>
<path d="M191.145 170.44L191.155 173.21L127.295 210.08L127.285 207.32L191.145 170.44Z" fill="black"/>
<path d="M191.215 191.95V194.72L127.355 231.59L127.345 228.82L191.215 191.95Z" fill="black"/>
<path d="M161.605 214.23L161.615 216.99L127.365 236.76V234L161.605 214.23Z" fill="black"/>
<path d="M152.475 209.13V211.9L127.335 226.42V223.65L152.475 209.13Z" fill="black"/>
<path d="M184.195 179.64L184.205 182.4L127.305 215.25V212.49L184.195 179.64Z" fill="black"/>
<path d="M166.495 179.5L166.505 182.26L127.275 204.91V202.14L166.495 179.5Z" fill="black"/>
<path d="M113.955 230.56C117.495 228.51 120.385 230.15 120.395 234.22C120.277 236.441 119.636 238.602 118.524 240.528C117.412 242.453 115.86 244.088 113.995 245.3C110.455 247.35 107.565 245.7 107.555 241.63C107.672 239.41 108.313 237.25 109.426 235.326C110.538 233.402 112.09 231.769 113.955 230.56Z" fill="black"/>
<path d="M273.745 259.7L262.815 253.35L117.165 325.88L128.125 332.21L273.745 259.7Z" fill="#455A64"/>
<path d="M344.395 300.76L199.025 373.14L210.785 379.93L356.105 307.56L344.395 300.76Z" fill="#455A64"/>
<path opacity="0.3" d="M273.745 259.7L262.815 253.35L117.165 325.88L128.125 332.21L273.745 259.7Z" fill="black"/>
<path d="M199.025 373.14L128.125 332.21L117.165 325.88L96.7847 323.2L190.085 377.42L210.785 379.93L199.025 373.14Z" fill="#455A64"/>
<path opacity="0.5" d="M199.025 373.14L128.125 332.21L117.165 325.88L96.7847 323.2L190.085 377.42L210.785 379.93L199.025 373.14Z" fill="black"/>
<path opacity="0.3" d="M344.395 300.76L199.025 373.14L210.785 379.93L356.105 307.56L344.395 300.76Z" fill="black"/>
<path d="M190.085 377.42L96.7847 323.2L96.8047 347.8L96.8247 358.64L190.115 412.86L190.085 377.42Z" fill="#455A64"/>
<path d="M105.805 350.56V342.38C105.803 342.028 105.895 341.682 106.07 341.377C106.245 341.072 106.497 340.818 106.801 340.642C107.106 340.465 107.451 340.372 107.803 340.372C108.154 340.371 108.5 340.464 108.805 340.64L178.525 381.16C179.285 381.599 179.916 382.23 180.355 382.99C180.794 383.75 181.025 384.612 181.025 385.49V393.67C181.026 394.022 180.935 394.367 180.76 394.673C180.585 394.978 180.332 395.231 180.028 395.408C179.724 395.584 179.378 395.677 179.027 395.678C178.675 395.678 178.329 395.586 178.025 395.41L108.335 354.89C107.569 354.455 106.932 353.825 106.488 353.065C106.043 352.305 105.808 351.44 105.805 350.56Z" fill="#37474F"/>
<path d="M190.085 377.42L190.115 412.86L356.145 317L356.105 307.56L210.785 379.93L190.085 377.42Z" fill="#455A64"/>
<path opacity="0.1" d="M190.085 377.42L190.115 412.86L356.145 317L356.105 307.56L210.785 379.93L190.085 377.42Z" fill="black"/>
<path d="M273.745 259.7L273.735 264.17H264.765L273.745 259.7Z" fill="#455A64"/>
<path d="M266.215 263.45L128.125 332.21L199.025 373.14L340.245 302.82L272.865 263.66C271.861 263.076 270.727 262.751 269.566 262.714C268.405 262.678 267.254 262.931 266.215 263.45Z" fill="#37474F"/>
<path d="M191.915 269.28C191.119 269.28 190.356 269.596 189.793 270.158C189.231 270.721 188.915 271.484 188.915 272.28V371.97C190.728 373.101 192.785 373.787 194.915 373.97V272.29C194.916 271.895 194.839 271.504 194.689 271.139C194.539 270.774 194.318 270.442 194.039 270.162C193.761 269.882 193.43 269.66 193.065 269.509C192.7 269.358 192.309 269.28 191.915 269.28Z" fill="#BCBCBC"/>
<path opacity="0.2" d="M191.915 269.28C191.119 269.28 190.356 269.596 189.793 270.158C189.231 270.721 188.915 271.484 188.915 272.28V371.97C190.728 373.101 192.785 373.787 194.915 373.97V272.29C194.916 271.895 194.839 271.504 194.689 271.139C194.539 270.774 194.318 270.442 194.039 270.162C193.761 269.882 193.43 269.66 193.065 269.509C192.7 269.358 192.309 269.28 191.915 269.28Z" fill="black"/>
<path opacity="0.3" d="M191.915 269.28C191.119 269.28 190.356 269.596 189.793 270.158C189.231 270.721 188.915 271.484 188.915 272.28V280.91C190.687 281.225 192.484 281.386 194.285 281.39H194.925V272.29C194.926 271.894 194.849 271.502 194.698 271.136C194.547 270.771 194.326 270.438 194.046 270.158C193.766 269.879 193.434 269.657 193.068 269.506C192.702 269.355 192.31 269.278 191.915 269.28Z" fill="black"/>
<path d="M112.945 226.64C112.149 226.64 111.386 226.956 110.823 227.519C110.261 228.081 109.945 228.844 109.945 229.64V327.36C111.782 328.402 113.836 329.004 115.945 329.12V229.65C115.946 229.255 115.869 228.864 115.719 228.499C115.569 228.134 115.348 227.802 115.069 227.522C114.791 227.242 114.46 227.021 114.095 226.869C113.73 226.718 113.339 226.64 112.945 226.64Z" fill="#BCBCBC"/>
<path opacity="0.2" d="M112.945 226.64C112.149 226.64 111.386 226.956 110.823 227.519C110.261 228.081 109.945 228.844 109.945 229.64V327.36C111.782 328.402 113.836 329.004 115.945 329.12V229.65C115.946 229.255 115.869 228.864 115.719 228.499C115.569 228.134 115.348 227.802 115.069 227.522C114.791 227.242 114.46 227.021 114.095 226.869C113.73 226.718 113.339 226.64 112.945 226.64Z" fill="black"/>
<path opacity="0.3" d="M112.945 226.64C112.149 226.64 111.386 226.956 110.823 227.519C110.261 228.081 109.945 228.844 109.945 229.64V237.47L115.945 240.95V229.65C115.946 229.255 115.869 228.864 115.719 228.499C115.569 228.134 115.348 227.802 115.069 227.522C114.791 227.242 114.46 227.021 114.095 226.869C113.73 226.718 113.339 226.64 112.945 226.64Z" fill="black"/>
<path d="M135.745 206.33C135.543 206.049 135.275 205.824 134.964 205.674C134.653 205.523 134.31 205.453 133.965 205.47L114.645 209.87C115.002 209.834 115.362 209.895 115.688 210.046C116.013 210.198 116.292 210.434 116.495 210.73C117.098 211.529 117.503 212.459 117.677 213.445C117.851 214.43 117.788 215.443 117.495 216.4C117.415 216.749 117.244 217.071 116.997 217.332C116.751 217.592 116.439 217.781 116.095 217.88L135.325 213.48C135.673 213.384 135.989 213.196 136.239 212.936C136.489 212.675 136.664 212.352 136.745 212C137.033 211.042 137.092 210.031 136.918 209.046C136.745 208.061 136.343 207.131 135.745 206.33Z" fill="#455A64"/>
<path d="M117.535 216.4C117.828 215.443 117.89 214.43 117.717 213.445C117.543 212.459 117.138 211.529 116.535 210.73C116.332 210.434 116.053 210.198 115.727 210.046C115.402 209.895 115.042 209.834 114.685 209.87L114.565 209.92C114.249 210.036 113.966 210.227 113.739 210.476C113.513 210.725 113.35 211.024 113.265 211.35C112.973 212.307 112.911 213.319 113.085 214.305C113.259 215.29 113.663 216.22 114.265 217.02C114.464 217.315 114.74 217.551 115.061 217.704C115.383 217.857 115.74 217.921 116.095 217.89H116.145C116.489 217.789 116.799 217.597 117.044 217.335C117.288 217.073 117.458 216.75 117.535 216.4Z" fill="#263238"/>
<path d="M229.575 261.54C229.377 261.258 229.11 261.03 228.801 260.878C228.492 260.726 228.149 260.654 227.805 260.67L208.485 265.09C208.843 265.055 209.204 265.117 209.529 265.271C209.855 265.424 210.133 265.662 210.335 265.96C210.935 266.758 211.339 267.686 211.513 268.67C211.687 269.654 211.626 270.664 211.335 271.62C211.249 271.968 211.073 272.287 210.826 272.547C210.579 272.807 210.268 272.997 209.925 273.1L229.155 268.71C229.5 268.608 229.812 268.418 230.061 268.158C230.31 267.899 230.487 267.579 230.575 267.23C230.87 266.27 230.933 265.254 230.759 264.264C230.585 263.275 230.179 262.342 229.575 261.54Z" fill="#455A64"/>
<path d="M208.345 265.09C208.385 265.086 208.425 265.086 208.465 265.09H208.345Z" fill="#455A64"/>
<path d="M211.375 271.6C211.666 270.644 211.727 269.634 211.553 268.65C211.379 267.667 210.976 266.738 210.375 265.94C210.173 265.642 209.895 265.404 209.569 265.251C209.244 265.098 208.883 265.035 208.525 265.07C208.485 265.066 208.445 265.066 208.405 265.07C208.089 265.188 207.807 265.38 207.582 265.631C207.358 265.882 207.197 266.183 207.115 266.51C206.821 267.465 206.759 268.476 206.933 269.46C207.107 270.444 207.512 271.373 208.115 272.17C208.315 272.465 208.59 272.701 208.911 272.854C209.233 273.007 209.59 273.071 209.945 273.04C210.287 272.944 210.599 272.761 210.849 272.508C211.1 272.256 211.281 271.943 211.375 271.6Z" fill="#263238"/>
<g opacity="0.4">
<path d="M135.745 206.33C135.543 206.049 135.275 205.824 134.964 205.674C134.653 205.523 134.309 205.453 133.965 205.47L114.645 209.87C115.002 209.834 115.362 209.895 115.687 210.046C116.013 210.198 116.292 210.434 116.495 210.73C117.098 211.529 117.503 212.459 117.676 213.445C117.85 214.43 117.788 215.443 117.495 216.4C117.415 216.749 117.243 217.071 116.997 217.332C116.751 217.592 116.439 217.781 116.095 217.88L135.325 213.48C135.673 213.384 135.989 213.196 136.239 212.936C136.489 212.675 136.664 212.352 136.745 212C137.032 211.042 137.092 210.031 136.918 209.046C136.744 208.061 136.343 207.131 135.745 206.33Z" fill="black"/>
</g>
<g opacity="0.4">
<path d="M229.575 261.54C229.377 261.258 229.11 261.03 228.801 260.878C228.492 260.726 228.149 260.654 227.805 260.67L208.485 265.09C208.843 265.055 209.204 265.117 209.529 265.271C209.855 265.424 210.133 265.662 210.335 265.96C210.935 266.758 211.339 267.686 211.513 268.67C211.687 269.654 211.626 270.664 211.335 271.62C211.249 271.968 211.073 272.287 210.826 272.547C210.579 272.807 210.268 272.997 209.925 273.1L229.155 268.71C229.5 268.608 229.812 268.418 230.061 268.158C230.31 267.899 230.487 267.579 230.575 267.23C230.87 266.27 230.933 265.254 230.759 264.264C230.585 263.275 230.179 262.342 229.575 261.54Z" fill="black"/>
<path d="M208.345 265.09C208.385 265.086 208.425 265.086 208.465 265.09H208.345Z" fill="black"/>
</g>
<path d="M208.085 266.61L200.405 268.53C194.102 270.118 187.427 269.181 181.805 265.92L111.445 225.3C110.749 224.906 110.188 224.312 109.833 223.596C109.478 222.88 109.346 222.073 109.453 221.281C109.561 220.489 109.904 219.748 110.437 219.152C110.97 218.556 111.669 218.134 112.445 217.94L115.525 217.18C116.585 216.32 116.465 211.65 114.215 211.31L110.985 212.1C109.038 212.573 107.279 213.62 105.934 215.105C104.59 216.59 103.722 218.445 103.444 220.429C103.166 222.413 103.49 224.434 104.375 226.232C105.259 228.029 106.663 229.52 108.405 230.51L178.805 271.09C183.513 273.823 188.86 275.265 194.305 275.27C196.869 275.249 199.422 274.913 201.905 274.27L209.425 272.4C210.455 271.63 210.335 266.96 208.085 266.61Z" fill="#BCBCBC"/>
<path d="M119.715 237.47V216.62L164.835 242.68V263.52L119.715 237.47Z" fill="#455A64"/>
<path d="M164.835 242.68L191.915 255.89V263.52H164.835V242.68Z" fill="#455A64"/>
<path d="M119.715 216.62L164.835 242.68L191.915 255.89L146.785 229.84L119.715 216.62Z" fill="#455A64"/>
<path opacity="0.1" d="M164.835 242.68L191.915 255.89V263.52H164.835V242.68Z" fill="black"/>
<path opacity="0.3" d="M119.715 216.62L164.835 242.68L191.915 255.89L146.785 229.84L119.715 216.62Z" fill="black"/>
<path d="M291.495 11.32L295.905 8.76001L295.645 99.89L291.245 102.46L291.495 11.32Z" fill="#F0F0F0"/>
<path d="M291.245 102.46L295.645 99.8899L422.785 173.29L418.375 175.85L291.245 102.46Z" fill="#F5F5F5"/>
<path d="M286.445 2.57007L423.715 81.8201L423.425 184.61L286.155 105.35L286.445 2.57007ZM418.375 175.85L418.635 84.7201L291.495 11.3201L291.245 102.45L418.375 175.85Z" fill="#BCBCBC"/>
<path d="M286.445 2.57L290.855 0L428.125 79.26L423.715 81.82L286.445 2.57Z" fill="#F5F5F5"/>
<path d="M423.715 81.82L428.125 79.26L427.835 182.05L423.425 184.61L423.715 81.82Z" fill="#F0F0F0"/>
<path d="M352.525 46.5601L352.265 137.69L357.335 140.62L357.595 49.4801L352.525 46.5601Z" fill="#BCBCBC"/>
<path d="M357.595 49.48L357.335 140.62L361.745 138.06L361.995 52.02L357.595 49.48Z" fill="#F0F0F0"/>
<path opacity="0.2" d="M357.595 53.5801L357.605 49.4801L352.535 46.5601L352.515 50.6501L357.595 53.5801Z" fill="black"/>
<path opacity="0.2" d="M357.585 53.58L361.145 51.53L357.595 49.48L357.585 53.58Z" fill="black"/>
<path opacity="0.2" d="M270.355 299.29C287.625 309.29 287.715 325.42 270.565 335.39C253.415 345.36 225.505 345.39 208.235 335.39C190.965 325.39 190.885 309.26 208.035 299.29C225.185 289.32 253.095 289.32 270.355 299.29Z" fill="black"/>
<path d="M237.675 186.62L241.465 170.09C236.297 170.813 231.41 172.882 227.295 176.09L207.455 191.69L221.105 195.9L237.675 186.62Z" fill="#FFA8A7"/>
<path d="M246.945 260.95L249.715 267.2C250.491 268.961 251.811 270.427 253.481 271.383C255.151 272.338 257.084 272.733 258.995 272.51L282.395 269.84C284.361 269.618 286.352 269.763 288.265 270.27L293.385 271.63V259.63L291.985 260.04C289.291 260.84 286.434 260.909 283.705 260.24L275.175 258.14C271.138 257.148 266.909 257.252 262.925 258.44L262.055 251.36L246.945 260.95Z" fill="#F28F8F"/>
<path d="M310.535 276.75C310.447 273.853 309.23 271.104 307.145 269.09C305.605 267.63 303.665 266.65 302.205 265.09C300.515 263.28 299.815 261.29 298.375 259.24C298.121 258.894 297.774 258.627 297.375 258.47C297.229 258.455 297.081 258.455 296.935 258.47C296.425 258.51 295.928 258.653 295.475 258.89C296.057 258.99 296.577 259.313 296.925 259.79C298.375 261.79 299.395 264.19 301.095 265.96C302.545 267.47 304.485 268.43 306.025 269.86C308.101 271.806 309.32 274.496 309.415 277.34C309.495 280.15 308.465 285 306.415 285C307.062 285.157 307.744 285.053 308.315 284.71C310.095 282.94 310.585 278.84 310.535 276.75Z" fill="#EBEBEB"/>
<path d="M298.375 259.24C299.815 261.29 300.515 263.24 302.205 265.09C303.665 266.65 305.605 267.63 307.145 269.09C309.23 271.104 310.446 273.852 310.535 276.75C310.535 278.84 310.095 282.94 308.385 284.68C310.565 283.37 311.165 278.74 311.095 276.48C310.999 273.638 309.784 270.95 307.715 269C306.175 267.57 304.225 266.61 302.775 265.09C301.075 263.32 300.385 261.37 298.935 259.38C298.754 259.133 298.526 258.925 298.263 258.769C298 258.612 297.708 258.511 297.405 258.47C297.793 258.632 298.129 258.898 298.375 259.24Z" fill="#455A64"/>
<path d="M291.465 259.73C290.969 259.948 290.423 260.027 289.885 259.96C289.885 259.96 288.305 259.8 287.785 259.7C286.785 259.51 286.685 260.64 286.685 260.64C287.28 260.703 287.88 260.703 288.475 260.64C288.61 260.848 288.788 261.025 288.996 261.159C289.205 261.294 289.44 261.383 289.685 261.42C290.186 261.518 290.675 261.669 291.145 261.87C291.377 261.976 291.574 262.148 291.709 262.365C291.844 262.582 291.912 262.834 291.905 263.09C291.815 263.65 291.265 263.98 290.905 264.45C290.737 264.723 290.642 265.034 290.628 265.355C290.614 265.675 290.682 265.993 290.825 266.28C290.504 266.142 290.146 266.119 289.81 266.216C289.475 266.313 289.183 266.522 288.985 266.81C288.609 267.415 288.383 268.1 288.325 268.81C288.222 269.283 288.188 269.768 288.225 270.25C288.242 270.493 288.308 270.73 288.42 270.947C288.532 271.164 288.686 271.355 288.875 271.51C289.066 271.659 289.302 271.74 289.545 271.74C289.788 271.74 290.023 271.659 290.215 271.51C291.495 273.59 297.345 274.38 300.275 278.31C303.205 282.24 303.845 285.03 306.445 285.03C308.445 285.03 309.445 280.18 309.445 277.37C309.35 274.526 308.131 271.836 306.055 269.89C304.515 268.46 302.575 267.5 301.125 265.99C299.425 264.22 298.405 261.82 296.955 259.82C296.607 259.343 296.087 259.02 295.505 258.92C295.329 258.9 295.151 258.9 294.975 258.92C293.764 258.968 292.574 259.242 291.465 259.73Z" fill="#EA454C"/>
<path d="M305.685 284.3L306.345 282.49C306.389 282.373 306.465 282.27 306.564 282.192C306.662 282.115 306.78 282.066 306.905 282.05C308.905 281.81 309.535 281.51 310.405 280.59C310.28 281.713 309.919 282.797 309.345 283.77C309.009 284.354 308.459 284.784 307.812 284.971C307.164 285.157 306.47 285.085 305.875 284.77C305.789 284.731 305.722 284.66 305.687 284.573C305.651 284.485 305.651 284.388 305.685 284.3Z" fill="#455A64"/>
<path d="M293.025 267.46C293.024 267.532 293.009 267.602 292.98 267.668C292.95 267.733 292.908 267.792 292.855 267.84C292.191 268.411 291.737 269.188 291.565 270.047C291.393 270.905 291.512 271.797 291.905 272.58C291.953 272.697 291.956 272.827 291.912 272.946C291.868 273.064 291.782 273.162 291.669 273.218C291.556 273.275 291.426 273.288 291.305 273.253C291.184 273.218 291.08 273.138 291.015 273.03C290.526 272.046 290.375 270.929 290.585 269.85C290.797 268.773 291.364 267.797 292.195 267.08C292.296 266.994 292.427 266.951 292.56 266.961C292.693 266.97 292.816 267.031 292.905 267.13C292.983 267.222 293.026 267.339 293.025 267.46Z" fill="#37474F"/>
<path d="M296.095 268.87C296.095 269.005 296.041 269.135 295.945 269.23C295.312 269.857 294.852 270.636 294.609 271.493C294.365 272.349 294.347 273.254 294.555 274.12C294.571 274.186 294.573 274.254 294.563 274.32C294.552 274.387 294.529 274.451 294.493 274.509C294.458 274.566 294.412 274.616 294.357 274.656C294.302 274.696 294.24 274.724 294.175 274.74C294.109 274.756 294.041 274.758 293.974 274.748C293.908 274.737 293.844 274.714 293.786 274.678C293.729 274.643 293.679 274.597 293.639 274.542C293.599 274.488 293.571 274.426 293.555 274.36C293.309 273.324 293.332 272.243 293.623 271.219C293.913 270.195 294.461 269.262 295.215 268.51C295.261 268.463 295.317 268.426 295.378 268.401C295.438 268.375 295.504 268.362 295.57 268.362C295.636 268.362 295.701 268.375 295.762 268.401C295.823 268.426 295.878 268.463 295.925 268.51C295.977 268.555 296.019 268.61 296.048 268.672C296.077 268.734 296.093 268.801 296.095 268.87Z" fill="#37474F"/>
<path d="M298.805 271.09C298.805 271.165 298.788 271.24 298.755 271.307C298.722 271.375 298.674 271.434 298.615 271.48C298.05 271.943 297.616 272.546 297.355 273.228C297.094 273.91 297.014 274.648 297.125 275.37C297.145 275.501 297.114 275.635 297.037 275.743C296.961 275.851 296.845 275.926 296.715 275.95C296.584 275.97 296.45 275.939 296.342 275.863C296.233 275.786 296.159 275.67 296.135 275.54C295.992 274.639 296.089 273.717 296.416 272.866C296.742 272.015 297.287 271.264 297.995 270.69C298.098 270.608 298.23 270.571 298.361 270.586C298.492 270.601 298.612 270.667 298.695 270.77C298.768 270.861 298.806 270.974 298.805 271.09Z" fill="#37474F"/>
<path d="M301.035 273.24C301.033 273.31 301.018 273.379 300.988 273.443C300.959 273.506 300.917 273.563 300.865 273.61C300.384 274.053 300.014 274.604 299.786 275.218C299.559 275.831 299.479 276.49 299.555 277.14C299.572 277.271 299.536 277.404 299.456 277.509C299.375 277.614 299.256 277.683 299.125 277.7C299.06 277.71 298.993 277.706 298.929 277.69C298.865 277.673 298.806 277.644 298.753 277.604C298.701 277.564 298.657 277.514 298.625 277.456C298.593 277.399 298.572 277.336 298.565 277.27C298.468 276.46 298.565 275.638 298.848 274.873C299.132 274.108 299.593 273.421 300.195 272.87C300.241 272.823 300.297 272.786 300.357 272.761C300.418 272.735 300.484 272.722 300.55 272.722C300.616 272.722 300.681 272.735 300.742 272.761C300.803 272.786 300.858 272.823 300.905 272.87C300.992 272.973 301.038 273.105 301.035 273.24Z" fill="#37474F"/>
<path d="M236.805 218.15C236.055 228.77 238.895 241.15 239.805 244.81L238.235 248.57C237.845 258.22 252.065 263.49 258.585 259.73C268.805 243.39 273.985 234.53 271.975 224.25L236.805 218.15Z" fill="#263238"/>
<path opacity="0.3" d="M240.655 243.17L246.945 230.65C241.685 229.08 237.675 222.81 237.675 222.81C238.485 228.14 243.565 231.52 243.565 231.52C241.332 234.974 240.309 239.072 240.655 243.17Z" fill="black"/>
<path d="M258.805 256.17C257.465 250.17 248.355 243.64 240.585 245.73L233.325 261.78C232.103 264.484 231.365 267.381 231.145 270.34L228.255 309.09C228.057 311.801 227.568 314.484 226.795 317.09L226.705 317.39L236.805 320.09C236.844 315.614 237.684 311.181 239.285 307L247.005 286.86C248.5 282.938 249.18 278.753 249.005 274.56L248.885 271.39L258.805 256.17Z" fill="#FFA8A7"/>
<path d="M221.025 337.09C223.919 336.999 226.663 335.783 228.675 333.7C230.145 332.16 231.125 330.22 232.675 328.77C234.485 327.07 236.485 326.37 238.525 324.93C238.871 324.676 239.138 324.329 239.295 323.93C239.31 323.784 239.31 323.636 239.295 323.49C239.256 322.981 239.117 322.485 238.885 322.03C238.789 322.614 238.465 323.135 237.985 323.48C235.985 324.93 233.595 325.95 231.825 327.65C230.305 329.1 229.345 331.05 227.915 332.58C225.969 334.656 223.279 335.876 220.435 335.97C217.635 336.05 212.775 335.03 212.775 332.97C212.618 333.617 212.722 334.299 213.065 334.87C214.805 336.61 218.925 337.09 221.025 337.09Z" fill="#EBEBEB"/>
<path d="M238.525 324.89C236.525 326.33 234.525 327.03 232.675 328.73C231.125 330.18 230.145 332.12 228.675 333.66C226.663 335.743 223.919 336.959 221.025 337.05C218.925 337.11 214.835 336.61 213.085 334.9C214.395 337.08 219.035 337.68 221.285 337.61C224.127 337.519 226.818 336.303 228.765 334.23C230.195 332.69 231.155 330.75 232.675 329.29C234.445 327.6 236.395 326.9 238.395 325.45C238.643 325.271 238.851 325.043 239.006 324.78C239.161 324.516 239.259 324.223 239.295 323.92C239.133 324.308 238.866 324.644 238.525 324.89Z" fill="#455A64"/>
<path d="M238.045 317.98C237.825 317.488 237.745 316.945 237.815 316.41C237.815 316.41 237.965 314.82 238.065 314.31C238.255 313.31 237.485 313.26 237.485 313.26C237.485 313.26 237.335 314.05 237.205 314.98C236.99 315.117 236.804 315.296 236.658 315.505C236.512 315.715 236.409 315.951 236.355 316.2C236.257 316.701 236.106 317.19 235.905 317.66C235.8 317.893 235.628 318.09 235.411 318.226C235.193 318.361 234.941 318.429 234.685 318.42C234.135 318.34 233.795 317.78 233.335 317.42C233.06 317.253 232.747 317.158 232.425 317.144C232.103 317.13 231.783 317.197 231.495 317.34C231.636 317.021 231.66 316.663 231.563 316.328C231.467 315.994 231.255 315.704 230.965 315.51C230.362 315.13 229.676 314.9 228.965 314.84C228.488 314.742 228 314.708 227.515 314.74C227.273 314.756 227.037 314.822 226.822 314.934C226.606 315.046 226.417 315.201 226.265 315.39C226.114 315.581 226.032 315.817 226.032 316.06C226.032 316.303 226.114 316.539 226.265 316.73C224.175 318.01 223.385 323.86 219.455 326.79C215.525 329.72 212.735 330.37 212.735 332.96C212.735 334.96 217.595 335.96 220.395 335.96C223.239 335.866 225.929 334.646 227.875 332.57C229.305 331.04 230.265 329.09 231.785 327.64C233.555 325.94 235.945 324.92 237.945 323.47C238.252 323.238 238.498 322.935 238.662 322.586C238.826 322.238 238.902 321.855 238.885 321.47C238.816 320.266 238.531 319.084 238.045 317.98Z" fill="#EA454C"/>
<path d="M213.465 332.2L215.275 332.86C215.396 332.903 215.503 332.979 215.582 333.08C215.662 333.181 215.711 333.302 215.725 333.43C215.955 335.43 216.255 336.06 217.175 336.92C216.055 336.8 214.974 336.442 214.005 335.87C213.42 335.532 212.99 334.981 212.803 334.332C212.617 333.683 212.689 332.987 213.005 332.39C213.046 332.308 213.115 332.244 213.199 332.209C213.284 332.174 213.378 332.171 213.465 332.2Z" fill="#455A64"/>
<path d="M230.315 319.55C230.242 319.55 230.17 319.534 230.104 319.503C230.039 319.472 229.981 319.426 229.935 319.37C229.359 318.71 228.583 318.256 227.725 318.08C226.863 317.909 225.968 318.032 225.185 318.43C225.065 318.49 224.927 318.499 224.801 318.457C224.674 318.415 224.569 318.324 224.51 318.205C224.45 318.086 224.44 317.947 224.482 317.821C224.525 317.694 224.615 317.59 224.735 317.53C225.723 317.026 226.853 316.869 227.941 317.085C229.029 317.301 230.014 317.877 230.735 318.72C230.82 318.82 230.862 318.949 230.853 319.08C230.844 319.211 230.783 319.333 230.685 319.42C230.635 319.465 230.577 319.5 230.513 319.523C230.449 319.545 230.382 319.554 230.315 319.55Z" fill="#37474F"/>
<path d="M228.895 322.61C228.76 322.61 228.63 322.556 228.535 322.46C227.91 321.828 227.132 321.369 226.277 321.125C225.422 320.882 224.519 320.863 223.655 321.07C223.591 321.086 223.524 321.09 223.458 321.08C223.392 321.07 223.329 321.047 223.272 321.013C223.215 320.979 223.166 320.933 223.127 320.879C223.088 320.826 223.06 320.765 223.045 320.7C223.028 320.637 223.025 320.571 223.034 320.507C223.043 320.442 223.065 320.38 223.099 320.325C223.132 320.269 223.177 320.22 223.229 320.181C223.282 320.143 223.342 320.115 223.405 320.1C224.44 319.852 225.522 319.874 226.547 320.165C227.571 320.456 228.504 321.005 229.255 321.76C229.324 321.831 229.371 321.92 229.389 322.017C229.407 322.114 229.397 322.214 229.358 322.305C229.32 322.396 229.255 322.473 229.173 322.528C229.09 322.582 228.994 322.611 228.895 322.61Z" fill="#37474F"/>
<path d="M226.715 325.28C226.638 325.279 226.563 325.262 226.494 325.229C226.425 325.196 226.364 325.149 226.315 325.09C225.853 324.523 225.251 324.086 224.569 323.823C223.887 323.56 223.148 323.48 222.425 323.59C222.292 323.611 222.157 323.579 222.048 323.5C221.939 323.421 221.866 323.303 221.845 323.17C221.824 323.037 221.856 322.902 221.935 322.793C222.013 322.684 222.132 322.611 222.265 322.59C223.164 322.448 224.084 322.546 224.934 322.872C225.783 323.199 226.532 323.743 227.105 324.45C227.166 324.523 227.205 324.613 227.217 324.708C227.229 324.802 227.213 324.899 227.172 324.985C227.131 325.071 227.066 325.144 226.985 325.194C226.904 325.245 226.81 325.271 226.715 325.27V325.28Z" fill="#37474F"/>
<path d="M224.535 327.55C224.464 327.55 224.395 327.535 224.331 327.506C224.267 327.477 224.21 327.434 224.165 327.38C223.718 326.9 223.165 326.533 222.55 326.307C221.935 326.081 221.276 326.003 220.625 326.08C220.493 326.092 220.362 326.053 220.258 325.971C220.154 325.889 220.085 325.771 220.065 325.64C220.056 325.574 220.061 325.507 220.079 325.444C220.097 325.38 220.127 325.32 220.168 325.268C220.209 325.216 220.259 325.172 220.317 325.14C220.375 325.108 220.439 325.087 220.505 325.08C221.315 324.984 222.136 325.081 222.901 325.365C223.666 325.648 224.353 326.109 224.905 326.71C224.967 326.783 225.007 326.872 225.021 326.967C225.035 327.061 225.022 327.158 224.983 327.246C224.944 327.333 224.882 327.408 224.803 327.462C224.723 327.516 224.631 327.546 224.535 327.55Z" fill="#37474F"/>
<path d="M263.305 169.22C257.831 168.79 252.334 168.75 246.855 169.1C244.395 169.137 241.974 169.717 239.765 170.8C238.357 171.698 237.144 172.868 236.196 174.242C235.248 175.616 234.585 177.166 234.245 178.8C233.593 182.067 233.384 185.407 233.625 188.73C233.915 199.59 234.725 208.86 235.895 219.66C246.685 225.89 260.895 228.84 272.895 225.42C273.065 211.42 272.375 196.61 269.555 182.89C268.555 177.93 267.105 172.57 263.305 169.22Z" fill="#455A64"/>
<path opacity="0.3" d="M263.305 169.22C257.831 168.79 252.334 168.75 246.855 169.1C244.395 169.137 241.974 169.717 239.765 170.8C238.357 171.698 237.144 172.868 236.196 174.242C235.248 175.616 234.585 177.166 234.245 178.8C233.593 182.067 233.384 185.407 233.625 188.73C233.915 199.59 234.725 208.86 235.895 219.66C246.685 225.89 260.895 228.84 272.895 225.42C273.065 211.42 272.375 196.61 269.555 182.89C268.555 177.93 267.105 172.57 263.305 169.22Z" fill="black"/>
<path d="M295.915 197.09C296.051 195.611 295.82 194.121 295.24 192.753C294.661 191.385 293.752 190.181 292.595 189.25L272.695 173.18C270 170.996 266.747 169.611 263.305 169.18L261.355 169.03C259.575 170.68 258.795 182.43 266.815 187.2L284.115 197.3L283.945 219.53L278.025 226.29C277.918 226.408 277.84 226.549 277.799 226.702C277.757 226.856 277.753 227.017 277.786 227.172C277.82 227.328 277.889 227.473 277.99 227.596C278.091 227.719 278.219 227.817 278.365 227.88C278.705 228.039 279.084 228.1 279.457 228.054C279.83 228.008 280.183 227.857 280.475 227.62L282.395 226.05C281.205 228.29 280.165 230.84 278.975 233.05C278.678 233.485 278.531 234.004 278.555 234.53C278.595 234.752 278.684 234.962 278.815 235.146C278.947 235.329 279.117 235.481 279.315 235.59C279.705 235.812 280.138 235.949 280.585 235.99C282.148 236.174 283.731 235.892 285.135 235.18C286.535 234.47 287.771 233.475 288.765 232.26C290.665 229.971 291.805 227.147 292.025 224.18C293.812 215.227 295.111 206.184 295.915 197.09Z" fill="#FFA8A7"/>
<path d="M243.275 164.97V166.77C243.229 168.089 242.987 169.393 242.555 170.64C242.374 171.165 242.374 171.735 242.555 172.26C242.74 172.701 243.022 173.095 243.381 173.412C243.739 173.728 244.164 173.96 244.625 174.09C245.539 174.335 246.497 174.366 247.425 174.18C250.2 173.707 252.72 172.273 254.545 170.13L254.135 157.82L243.275 164.97Z" fill="#FFA8A7"/>
<path opacity="0.2" d="M251.955 163.17C252.835 161.63 253.4 159.93 253.615 158.17L243.275 164.96V166.76C243.265 167.286 243.215 167.811 243.125 168.33C244.583 168.077 246.004 167.644 247.355 167.04C249.233 166.226 250.832 164.881 251.955 163.17Z" fill="black"/>
<path d="M231.805 145C230.623 145.038 229.454 144.752 228.425 144.172C227.395 143.592 226.544 142.74 225.965 141.71C225.883 141.559 225.847 141.387 225.861 141.216C225.876 141.044 225.94 140.881 226.047 140.746C226.153 140.611 226.297 140.51 226.46 140.456C226.623 140.401 226.799 140.396 226.965 140.44C227.782 140.585 228.618 140.585 229.435 140.44C228.492 139.214 227.804 137.812 227.409 136.316C227.014 134.821 226.921 133.262 227.135 131.73C227.161 131.56 227.227 131.398 227.327 131.258C227.428 131.118 227.56 131.003 227.712 130.923C227.865 130.844 228.035 130.801 228.207 130.798C228.379 130.796 228.55 130.834 228.705 130.91C232.095 132.592 235.867 133.354 239.645 133.12C241.645 132.98 243.645 132.55 245.645 132.4C247.657 132.151 249.699 132.462 251.545 133.3C252.472 133.726 253.266 134.397 253.841 135.242C254.415 136.086 254.749 137.071 254.805 138.09C255.034 137.764 255.332 137.491 255.677 137.291C256.023 137.09 256.407 136.967 256.805 136.93C257.22 136.88 257.64 136.915 258.041 137.034C258.442 137.153 258.814 137.352 259.135 137.62L255.675 139.54C256.323 139.411 256.997 139.499 257.59 139.792C258.183 140.085 258.663 140.566 258.955 141.16C259.463 142.324 259.683 143.593 259.595 144.86C259.66 146.53 259.586 148.202 259.375 149.86C259.148 151.536 258.49 153.125 257.465 154.47C256.563 155.57 255.361 156.383 254.005 156.81C252.157 157.326 250.195 157.263 248.385 156.63C246.587 156.003 244.877 155.149 243.295 154.09C239.194 151.419 235.348 148.376 231.805 145Z" fill="#263238"/>
<path d="M231.585 141.65C230.426 148.61 231.194 155.755 233.805 162.31C234.28 163.881 235.27 165.248 236.615 166.19C238.095 167.04 239.935 166.86 241.615 166.61C244.355 166.301 247.027 165.547 249.525 164.38C252.044 163.193 254.007 161.079 255.005 158.48C255.9 158.662 256.828 158.582 257.678 158.248C258.528 157.915 259.263 157.342 259.795 156.6C260.85 155.059 261.395 153.227 261.355 151.36C261.355 150.18 261.135 148.78 260.075 148.26C259.554 148.101 258.999 148.086 258.471 148.219C257.942 148.351 257.46 148.624 257.075 149.01C255.651 150.155 254.606 151.702 254.075 153.45C253.295 150.56 252.075 147.77 251.295 144.89C251.119 143.719 250.522 142.652 249.615 141.89C248.405 141.11 246.825 141.56 245.425 141.89C240.866 142.991 236.102 142.909 231.585 141.65Z" fill="#FFA8A7"/>
<path d="M239.995 150.41L236.625 156.1L240.645 156.85L239.995 150.41Z" fill="#F28F8F"/>
<path d="M244.525 158.81L241.465 160.3C241.727 160.648 242.095 160.9 242.514 161.019C242.933 161.138 243.379 161.118 243.785 160.96C244.138 160.743 244.405 160.41 244.54 160.018C244.675 159.625 244.67 159.199 244.525 158.81Z" fill="#F28F8F"/>
<path opacity="0.3" d="M244.525 158.81L241.465 160.3C241.727 160.648 242.095 160.9 242.514 161.019C242.933 161.138 243.379 161.118 243.785 160.96C244.138 160.743 244.405 160.41 244.54 160.018C244.675 159.625 244.67 159.199 244.525 158.81Z" fill="black"/>
<path d="M242.725 161.09C243.08 161.159 243.449 161.125 243.785 160.99C244.065 160.832 244.292 160.595 244.438 160.309C244.584 160.023 244.642 159.699 244.605 159.38C244.168 159.376 243.744 159.524 243.405 159.8C243.212 159.959 243.052 160.155 242.935 160.377C242.819 160.598 242.747 160.841 242.725 161.09Z" fill="#F28F8F"/>
<path d="M245.805 150.64C245.836 150.869 245.797 151.103 245.694 151.31C245.592 151.517 245.429 151.689 245.228 151.803C245.027 151.918 244.797 151.969 244.566 151.951C244.335 151.933 244.115 151.847 243.934 151.703C243.753 151.56 243.619 151.365 243.549 151.144C243.479 150.924 243.477 150.687 243.543 150.465C243.608 150.244 243.739 150.047 243.917 149.899C244.096 149.752 244.314 149.662 244.545 149.64C244.844 149.606 245.145 149.692 245.381 149.88C245.617 150.067 245.77 150.341 245.805 150.64Z" fill="#263238"/>
<path d="M236.135 151.24C236.164 151.398 236.161 151.56 236.125 151.717C236.088 151.873 236.02 152.021 235.923 152.149C235.827 152.278 235.705 152.385 235.565 152.464C235.425 152.543 235.27 152.592 235.11 152.608C234.95 152.624 234.789 152.607 234.636 152.557C234.483 152.507 234.342 152.426 234.222 152.319C234.102 152.212 234.006 152.082 233.939 151.935C233.873 151.789 233.837 151.631 233.835 151.47C233.831 151.18 233.936 150.898 234.129 150.682C234.323 150.465 234.59 150.329 234.879 150.3C235.168 150.271 235.458 150.351 235.69 150.525C235.923 150.7 236.081 150.955 236.135 151.24Z" fill="#263238"/>
<path d="M234.555 146.78L232.175 148.78C232.033 148.474 231.988 148.132 232.045 147.8C232.102 147.468 232.259 147.161 232.495 146.92C232.79 146.705 233.14 146.578 233.505 146.553C233.869 146.529 234.233 146.607 234.555 146.78Z" fill="#263238"/>
<path d="M244.385 145.64L247.115 147.15C247.194 146.824 247.172 146.481 247.05 146.168C246.928 145.855 246.714 145.587 246.435 145.4C246.104 145.25 245.738 145.193 245.376 145.235C245.015 145.278 244.672 145.418 244.385 145.64Z" fill="#263238"/>
<path d="M245.145 213.17C245.145 212.89 245.145 212.62 245.075 212.35C244.739 210.043 243.744 207.883 242.209 206.129C240.675 204.374 238.666 203.1 236.425 202.46L221.545 193.46L211.545 188.46L207.425 191.71C206.497 192.431 205.802 193.408 205.425 194.52C204.94 196.004 205.054 197.619 205.741 199.022C206.428 200.424 207.635 201.503 209.105 202.03L233.105 210.49C234.674 212.131 235.67 214.236 235.945 216.49C236.008 217.152 236.139 217.805 236.335 218.44C236.671 219.194 237.242 219.819 237.964 220.221C238.685 220.623 239.517 220.78 240.335 220.67C241.145 220.546 241.915 220.235 242.583 219.761C243.252 219.287 243.8 218.663 244.185 217.94C244.957 216.475 245.29 214.819 245.145 213.17Z" fill="#FFA8A7"/>
<path d="M237.125 202.46V201.01H236.065V201.54L233.805 200.22C233.57 200.083 233.302 200.011 233.03 200.011C232.758 200.011 232.49 200.083 232.255 200.22L228.485 202.4V201.77L227.485 201.86V203.29C227.486 203.38 227.51 203.468 227.556 203.545C227.601 203.622 227.667 203.686 227.745 203.73L230.845 205.53C231.081 205.663 231.348 205.733 231.62 205.733C231.891 205.733 232.158 205.663 232.395 205.53L236.945 202.9C237.02 202.858 237.082 202.797 237.126 202.723C237.17 202.65 237.194 202.566 237.195 202.48L237.125 202.46Z" fill="#EA454C"/>
<path d="M232.215 199.03L228.365 201.26C228.296 201.297 228.238 201.351 228.198 201.418C228.157 201.485 228.136 201.562 228.136 201.64C228.136 201.718 228.157 201.795 228.198 201.862C228.238 201.929 228.296 201.984 228.365 202.02L231.005 203.54C231.205 203.658 231.433 203.72 231.665 203.72C231.897 203.72 232.125 203.658 232.325 203.54L236.185 201.31C236.251 201.271 236.306 201.216 236.345 201.149C236.383 201.083 236.403 201.007 236.403 200.93C236.403 200.853 236.383 200.778 236.345 200.711C236.306 200.644 236.251 200.589 236.185 200.55L233.535 199.03C233.335 198.912 233.107 198.85 232.875 198.85C232.643 198.85 232.415 198.912 232.215 199.03Z" fill="#EA454C"/>
<path opacity="0.3" d="M237.125 202.46V201.01H236.065V201.54L233.805 200.22C233.57 200.083 233.302 200.011 233.03 200.011C232.758 200.011 232.49 200.083 232.255 200.22L228.485 202.4V201.77L227.485 201.86V203.29C227.486 203.38 227.51 203.468 227.556 203.545C227.601 203.622 227.667 203.686 227.745 203.73L230.845 205.53C231.081 205.663 231.348 205.733 231.62 205.733C231.891 205.733 232.158 205.663 232.395 205.53L236.945 202.9C237.02 202.858 237.082 202.797 237.126 202.723C237.17 202.65 237.194 202.566 237.195 202.48L237.125 202.46Z" fill="black"/>
<path d="M232.205 198.79L227.675 201.41C227.596 201.454 227.53 201.519 227.484 201.597C227.438 201.675 227.414 201.764 227.414 201.855C227.414 201.946 227.438 202.035 227.484 202.113C227.53 202.191 227.596 202.256 227.675 202.3L230.805 204.09C231.041 204.223 231.308 204.293 231.58 204.293C231.851 204.293 232.118 204.223 232.355 204.09L236.905 201.46C236.981 201.414 237.045 201.348 237.089 201.27C237.133 201.193 237.156 201.105 237.156 201.015C237.156 200.926 237.133 200.838 237.089 200.76C237.045 200.682 236.981 200.616 236.905 200.57L233.805 198.79C233.564 198.643 233.287 198.566 233.005 198.566C232.723 198.566 232.446 198.643 232.205 198.79Z" fill="#EA454C"/>
<path opacity="0.5" d="M232.215 199.03L228.365 201.26C228.296 201.297 228.238 201.351 228.198 201.418C228.157 201.485 228.136 201.562 228.136 201.64C228.136 201.718 228.157 201.795 228.198 201.862C228.238 201.929 228.296 201.984 228.365 202.02L231.005 203.54C231.205 203.658 231.433 203.72 231.665 203.72C231.897 203.72 232.125 203.658 232.325 203.54L236.185 201.31C236.251 201.271 236.306 201.216 236.345 201.149C236.383 201.083 236.403 201.007 236.403 200.93C236.403 200.853 236.383 200.778 236.345 200.711C236.306 200.644 236.251 200.589 236.185 200.55L233.535 199.03C233.335 198.912 233.107 198.85 232.875 198.85C232.643 198.85 232.415 198.912 232.215 199.03Z" fill="black"/>
<path d="M230.505 209.55C229.895 208.98 229.565 205.87 230.775 204.86L227.675 203.07C226.675 204.34 226.925 207.07 227.485 208.45C227.551 208.608 227.65 208.75 227.776 208.865C227.902 208.981 228.052 209.068 228.215 209.12C228.815 209.32 229.825 209.67 230.215 209.8C230.334 209.843 230.461 209.859 230.588 209.847C230.714 209.835 230.836 209.795 230.945 209.73L230.505 209.55Z" fill="#455A64"/>
</svg>
